<?xml version="1.0" encoding="UTF-8"?><svg id="_레이어_2" xmlns="http://www.w3.org/2000/svg" viewBox="0 0 206.21 30"><defs><style>.cls-1{fill:#fff;}</style></defs><g id="_레이어_1-2"><g><g><path class="cls-1" d="m50.24,15.57l4.84,3.16c-.35.97-.96,1.72-1.83,2.25-.87.53-1.8.8-2.8.8-.78,0-1.51-.15-2.18-.44-.67-.29-1.25-.69-1.74-1.2-.49-.49-.87-1.07-1.14-1.73-.27-.66-.4-1.35-.4-2.07s.14-1.44.41-2.1c.28-.66.66-1.24,1.15-1.73.49-.48,1.07-.86,1.74-1.15.67-.29,1.39-.45,2.16-.46.97,0,1.89.25,2.77.74.84.47,1.46,1.15,1.89,2.04l2.85-1.49-.57-.81c-.52-.74-1.15-1.37-1.87-1.89-.72-.54-1.52-.96-2.39-1.26-.87-.3-1.78-.45-2.73-.45-1.2,0-2.32.23-3.37.68-1.05.45-1.95,1.06-2.72,1.83-.78.78-1.4,1.69-1.84,2.73-.45,1.04-.67,2.14-.67,3.31s.22,2.32.67,3.37c.45,1.04,1.06,1.95,1.84,2.72.77.78,1.67,1.4,2.72,1.84,1.05.45,2.17.67,3.37.67.95,0,1.94-.2,2.97-.61,1.03-.41,1.97-1.01,2.81-1.81.84-.78,1.53-1.76,2.06-2.93.53-1.17.78-2.5.75-4.01h-8.76Z"/><path class="cls-1" d="m77.97,10.32c-.77-.77-1.67-1.38-2.72-1.83-1.05-.45-2.15-.68-3.32-.68s-2.3.23-3.34.68c-1.05.45-1.95,1.06-2.72,1.83-.78.77-1.4,1.68-1.84,2.72-.45,1.05-.67,2.15-.67,3.32s.22,2.3.67,3.34c.45,1.04,1.06,1.95,1.84,2.72.77.78,1.67,1.4,2.72,1.84,1.05.45,2.16.67,3.34.67s2.27-.22,3.32-.67c1.05-.45,1.95-1.06,2.72-1.84.77-.77,1.38-1.67,1.83-2.72.45-1.05.68-2.16.68-3.34s-.23-2.28-.68-3.32c-.45-1.04-1.06-1.95-1.83-2.72Zm-1.05,8.17c-.28.65-.67,1.23-1.16,1.72-.49.49-1.06.88-1.72,1.15-.65.28-1.36.42-2.11.42s-1.48-.14-2.14-.42c-.66-.28-1.24-.66-1.73-1.15-.49-.49-.88-1.06-1.15-1.72-.28-.65-.41-1.36-.41-2.13s.14-1.46.41-2.11c.28-.65.66-1.23,1.15-1.72.49-.49,1.07-.88,1.73-1.16.66-.28,1.38-.43,2.14-.43s1.46.14,2.11.43c.65.28,1.23.67,1.72,1.16.49.49.88,1.07,1.16,1.72s.43,1.36.43,2.11-.14,1.48-.43,2.13Z"/><path class="cls-1" d="m90.64,11.7c0-1.92-1.56-3.48-3.48-3.48v16.3h12.08v-2.95h-8.6v-9.87Z"/><path class="cls-1" d="m108.58,16.61c.29-.29.64-.53,1.04-.7.4-.18.83-.26,1.29-.26.57,0,1.07.11,1.51.35.44.23.8.58,1.07,1.04h3.32c-.2-.61-.49-1.19-.86-1.73-.38-.54-.83-1.01-1.35-1.41-.51-.38-1.08-.69-1.72-.92-.64-.23-1.31-.35-2.02-.35-.88,0-1.69.17-2.46.51-.76.34-1.43.79-1.99,1.36-.57.57-1.02,1.23-1.35,1.99-.33.76-.5,1.57-.5,2.43s.16,1.69.5,2.46c.33.76.78,1.43,1.35,1.99.57.57,1.23,1.02,1.99,1.35.76.33,1.58.5,2.46.5.71,0,1.38-.11,2.02-.33.64-.22,1.22-.53,1.74-.91.52-.4.97-.87,1.34-1.41.37-.54.64-1.12.83-1.75h-3.32c-.28.41-.63.75-1.06,1-.43.25-.93.38-1.5.38-.46,0-.89-.08-1.29-.25-.4-.17-.75-.4-1.04-.69-.29-.31-.52-.66-.69-1.05-.17-.39-.25-.82-.25-1.28s.08-.86.25-1.26c.17-.39.4-.74.69-1.05Z"/><path class="cls-1" d="m129.31,14.35c-.57-.57-1.24-1.02-2.01-1.36-.77-.34-1.59-.51-2.47-.51s-1.7.17-2.48.51c-.78.34-1.45.79-2.02,1.36-.58.57-1.04,1.24-1.37,2.01-.33.77-.5,1.59-.5,2.47s.16,1.7.5,2.48c.33.78.79,1.45,1.37,2.02.57.58,1.24,1.04,2.02,1.37.78.33,1.6.5,2.48.5s1.7-.17,2.47-.5c.77-.33,1.44-.79,2.01-1.37.57-.57,1.02-1.24,1.36-2.02.34-.78.51-1.6.51-2.48s-.17-1.7-.51-2.47c-.34-.77-.79-1.44-1.36-2.01Zm-1.42,5.79c-.18.4-.41.75-.7,1.06-.31.29-.66.52-1.06.69-.4.17-.83.25-1.29.25-.94,0-1.73-.32-2.36-.96-.64-.64-.96-1.43-.96-2.36,0-.46.08-.89.25-1.29.17-.4.4-.75.69-1.06.31-.29.66-.53,1.06-.7.4-.18.84-.27,1.31-.27s.89.09,1.29.27c.4.18.75.41,1.06.7.29.31.53.66.7,1.06.18.4.27.83.27,1.29s-.09.91-.27,1.31Z"/><path class="cls-1" d="m148.56,13.89c-.39-.38-.83-.7-1.34-.93-.51-.24-1.06-.36-1.66-.36-.57,0-1.06.09-1.48.26-.42.18-.76.37-1.04.59-.28.23-.48.44-.62.62-.14.18-.21.28-.21.3-.03-.02-.12-.12-.27-.3-.15-.18-.35-.39-.61-.62-.26-.22-.58-.41-.96-.59-.38-.18-.8-.26-1.28-.26s-.92.08-1.28.24c-.36.16-.66.33-.91.52-.25.18-.43.36-.57.52-.13.16-.2.25-.2.27v-1.11h-3.14v11.73h3.16v-7.47c0-.48.16-.92.48-1.32.32-.41.78-.61,1.36-.61s1.06.21,1.38.62c.32.41.48.87.48,1.36v7.42h3v-7.54c0-.41.15-.83.46-1.24.31-.42.76-.62,1.36-.62.68,0,1.16.2,1.45.61.29.41.44.83.44,1.26v7.54h3.16v-7.98c0-.54-.11-1.06-.32-1.57-.22-.51-.51-.95-.88-1.34Z"/><path class="cls-1" d="m163.01,14.74c-.55-.55-1.18-.99-1.89-1.31-.71-.32-1.42-.48-2.14-.48s-1.44.14-2.19.43c-.75.29-1.33.68-1.73,1.19v-1.24h-3.37v16.34h3.37v-5.85c.57.46,1.18.84,1.84,1.15.66.31,1.36.46,2.1.46s1.41-.16,2.11-.47c.7-.32,1.33-.75,1.9-1.3.55-.55,1-1.21,1.35-1.97.35-.76.52-1.59.52-2.48s-.17-1.72-.52-2.48c-.35-.76-.8-1.42-1.35-1.97Zm-1.61,5.82c-.18.42-.44.79-.76,1.09-.31.32-.67.57-1.09.75-.42.18-.87.26-1.35.26s-.95-.09-1.37-.26c-.42-.18-.79-.43-1.12-.75-.32-.31-.57-.67-.75-1.09-.18-.42-.26-.88-.26-1.37s.09-.93.26-1.35c.18-.42.43-.8.75-1.12.32-.32.69-.58,1.12-.76.42-.18.88-.28,1.37-.28s.93.09,1.35.28c.42.18.79.44,1.09.76.32.32.58.7.76,1.12.18.42.28.87.28,1.35s-.09.95-.28,1.37Z"/><path class="cls-1" d="m176.35,14.28c-.37-.46-.93-.84-1.69-1.13-.76-.29-1.51-.44-2.25-.44s-1.46.16-2.17.48c-.71.32-1.34.76-1.89,1.31-.55.57-1,1.23-1.32,1.99-.33.76-.5,1.58-.5,2.45s.17,1.72.51,2.48c.34.76.79,1.43,1.36,1.99.55.55,1.18.99,1.88,1.3.7.31,1.41.47,2.13.47s1.42-.12,2.1-.37c.68-.25,1.29-.6,1.84-1.06v1.04h3.37v-11.71h-3.37v1.18Zm.37,4.68c0,.48-.09.93-.28,1.35-.18.42-.44.8-.76,1.12-.32.31-.7.55-1.12.74-.42.18-.87.28-1.35.28s-.95-.09-1.37-.28c-.42-.18-.79-.43-1.09-.74-.32-.32-.57-.7-.75-1.12-.18-.42-.26-.87-.26-1.35s.09-.93.26-1.35c.18-.42.43-.8.75-1.12.31-.31.67-.55,1.09-.74.42-.18.88-.28,1.37-.28s.93.09,1.35.28c.42.18.8.43,1.12.74.32.32.58.7.76,1.12.18.42.28.87.28,1.35Z"/><path class="cls-1" d="m191.52,14.05c-.4-.43-.88-.78-1.44-1.05-.56-.27-1.19-.4-1.88-.4-.54,0-1.02.08-1.44.23-.42.15-.78.32-1.07.51-.29.18-.52.35-.68.51-.16.15-.25.23-.27.23v-1.04h-3.25v11.73h3.25v-7.05c0-.62.24-1.16.72-1.64.48-.48,1.04-.71,1.71-.71s1.21.24,1.68.73c.48.48.71,1.03.71,1.65v7.03h3.23v-7.56c0-.57-.11-1.13-.33-1.68-.22-.55-.53-1.04-.93-1.48Z"/><polygon class="cls-1" points="202.68 13.11 200.38 20.48 198.07 13.11 194.47 13.11 198.65 25.02 196.87 29.45 200.38 29.43 206.21 13.11 202.68 13.11"/><path class="cls-1" d="m60.58,20.58c-1.07,0-1.95.87-1.95,1.95s.87,1.95,1.95,1.95,1.95-.87,1.95-1.95-.87-1.95-1.95-1.95Z"/><path class="cls-1" d="m83.28,20.58c-1.07,0-1.95.87-1.95,1.95s.87,1.95,1.95,1.95,1.95-.87,1.95-1.95-.87-1.95-1.95-1.95Z"/></g><g><path class="cls-1" d="m22.86,30h-7.86C6.73,30,0,23.27,0,15S6.73,0,15,0s15,6.73,15,15v.72h-7.14v14.28ZM15,1.44C7.52,1.44,1.44,7.52,1.44,15s6.08,13.56,13.56,13.56h6.42v-12.85h-5.7v7.14h-.72c-4.33,0-7.86-3.53-7.86-7.86s3.53-7.86,7.86-7.86c4.09,0,7.46,3.14,7.83,7.14h5.72c-.38-7.15-6.31-12.85-13.55-12.85Zm0,7.14c-3.54,0-6.42,2.88-6.42,6.42,0,3.3,2.5,6.02,5.7,6.38v-7.1h7.1c-.36-3.2-3.08-5.7-6.38-5.7Z"/><path class="cls-1" d="m27.5,30c-2.37,0-4.29-1.92-4.29-4.29s1.92-4.29,4.29-4.29,4.29,1.92,4.29,4.29-1.92,4.29-4.29,4.29Zm0-7.14c-1.57,0-2.85,1.28-2.85,2.85s1.28,2.85,2.85,2.85,2.85-1.28,2.85-2.85-1.28-2.85-2.85-2.85Z"/></g></g></g></svg>